HIERARCHY
ROOT hip
{
	OFFSET 0.000000 0.000000 0.000000 
	CHANNELS 6 Xposition Yposition Zposition Xrotation Zrotation Yrotation
	JOINT abdomen
	{
		OFFSET 0.000000 3.402643 0.000000 
		CHANNELS 3 Xrotation Zrotation Yrotation
		JOINT chest
		{
			OFFSET 0.000000 8.438565 -0.680529 
			CHANNELS 3 Xrotation Zrotation Yrotation
			JOINT neck
			{
				OFFSET 0.000000 10.207942 -0.272212 
				CHANNELS 3 Xrotation Zrotation Yrotation
				JOINT head
				{
					OFFSET 0.000000 3.130431 0.000000 
					CHANNELS 3 Xrotation Zrotation Yrotation
					End Site
					{
						OFFSET 0.000000 3.130435 0.000000 
					}
				}
			}
			JOINT lCollar
			{
				OFFSET 3.470700 6.669187 -0.816635 
				CHANNELS 3 Yrotation Zrotation Xrotation
				JOINT lShldr
				{
					OFFSET 3.198488 0.000000 0.000000 
					CHANNELS 3 Zrotation Yrotation Xrotation
					JOINT lForeArm
					{
						OFFSET 10.139888 0.000000 0.000000 
						CHANNELS 3 Yrotation Zrotation Xrotation
						JOINT lHand
						{
							OFFSET 8.370511 0.000000 0.000000 
							CHANNELS 3 Zrotation Yrotation Xrotation
							End Site
							{
								OFFSET 4.083176 0.000000 0.000000 
							}
						}
					}
				}
			}
			JOINT rCollar
			{
				OFFSET -3.470700 6.669187 -0.816635 
				CHANNELS 3 Yrotation Zrotation Xrotation
				JOINT rShldr
				{
					OFFSET -3.198488 0.000000 0.000000 
					CHANNELS 3 Zrotation Yrotation Xrotation
					JOINT rForeArm
					{
						OFFSET -10.139888 0.000000 0.000000 
						CHANNELS 3 Yrotation Zrotation Xrotation
						JOINT rHand
						{
							OFFSET -8.370511 0.000000 0.000000 
							CHANNELS 3 Zrotation Yrotation Xrotation
							End Site
							{
								OFFSET -4.083176 0.000000 0.000000 
							}
						}
					}
				}
			}
		}
	}
	JOINT lThigh
	{
		OFFSET 5.308129 -1.633274 1.361059 
		CHANNELS 3 Xrotation Zrotation Yrotation
		JOINT lShin
		{
			OFFSET -2.041588 -20.007561 0.000000 
			CHANNELS 3 Xrotation Zrotation Yrotation
			JOINT lFoot
			{
				OFFSET 0.000000 -19.190928 -1.224953 
				CHANNELS 3 Xrotation Yrotation Zrotation
				End Site
				{
					OFFSET 0.000000 -2.449906 4.627600 
				}
			}
		}
	}
	JOINT rThigh
	{
		OFFSET -5.308129 -1.633274 1.361059 
		CHANNELS 3 Xrotation Zrotation Yrotation
		JOINT rShin
		{
			OFFSET 2.041588 -20.007561 0.000000 
			CHANNELS 3 Xrotation Zrotation Yrotation
			JOINT rFoot
			{
				OFFSET 0.000000 -19.190928 -1.224953 
				CHANNELS 3 Xrotation Yrotation Zrotation
				End Site
				{
					OFFSET 0.000000 -2.449906 4.627600 
				}
			}
		}
	}
}
MOTION
Frames: 6
Frame Time: 0.011111
0.090350 52.779369 -84.663567 0.666294 5.191467 -2.165739 35.093945 -6.924466 -5.537404 -37.943398 7.530471 -1.195610 -13.512981 -3.471443 -3.739755 24.849304 5.607354 -7.417147 4.570630 -11.838743 2.144267 -64.729164 -35.384399 29.622103 -48.631332 7.374546 7.606619 8.524705 12.647240 -41.370499 -5.057420 16.551065 2.193941 55.822571 18.402159 26.736141 52.911160 -8.320016 9.360116 -8.534408 -12.637552 43.812359 5.868061 -6.717906 -12.269301 21.343161 -5.743551 -3.707230 -24.113564 3.600500 -0.847741 -31.424358 -9.364607 5.682586 49.667397 3.793539 7.161690 -14.946508 -3.210414 2.177757 
0.093685 52.789040 -84.298828 0.715451 5.329897 -2.149837 35.049080 -6.983512 -5.720197 -37.737152 7.552701 -1.222746 -13.779104 -3.639830 -3.642679 25.068970 5.890677 -7.231385 4.570630 -11.838743 2.144267 -64.757439 -35.500458 29.823761 -48.953136 7.450090 7.732793 8.524705 12.647240 -41.390026 -5.057420 16.551065 2.193941 55.894321 18.261753 26.365480 52.511097 -8.239911 9.184276 -8.534408 -12.637552 43.646339 7.033435 -6.704483 -12.584285 20.024033 -5.792056 -3.528045 -23.950369 3.753195 -0.823099 -31.562902 -9.353822 6.479518 47.406784 4.006467 6.916759 -14.364277 -3.851052 2.070259 
0.092685 52.813049 -83.915421 0.784257 5.357096 -1.801318 35.018482 -6.873782 -5.857496 -37.386627 7.338865 -1.228702 -14.186564 -3.501404 -3.682196 24.923914 6.038373 -7.266133 4.570630 -11.838743 2.144267 -64.656494 -35.925758 29.879513 -49.327770 7.538859 7.879230 8.524705 12.647240 -41.438854 -5.057420 16.551065 2.193941 56.290562 18.252102 25.458319 52.101341 -8.159145 9.018231 -8.534408 -12.637552 43.070168 8.139297 -6.559967 -12.972017 18.796736 -5.812314 -3.351927 -23.727028 3.820324 -0.833142 -31.476254 -9.373683 7.134825 45.074406 4.211580 6.655525 -14.040853 -4.478561 1.956704 
0.090684 52.849388 -83.543365 0.882697 5.530828 -1.457492 34.896179 -6.851373 -6.351178 -37.501987 7.594445 -1.389856 -13.652143 -3.632099 -3.652506 24.445393 6.078645 -7.218920 4.570630 -11.838743 2.144267 -64.785736 -35.616524 30.025440 -49.901257 7.674523 8.112666 8.524705 12.647240 -41.224010 -5.057420 16.551065 2.193941 56.184399 17.758608 24.976952 51.629410 -8.063793 8.821921 -8.534408 -12.637552 42.640480 9.189844 -6.513886 -13.373937 17.594200 -5.858616 -3.191587 -23.533844 3.794759 -0.879027 -31.529745 -9.559958 7.945041 42.747311 4.416984 6.398221 -13.568796 -5.210866 1.863736 
0.072348 52.850716 -83.223625 1.166801 5.507821 -1.870335 34.606224 -7.022272 -6.233718 -37.695244 7.806934 -1.382386 -13.147052 -3.772780 -3.610881 24.094845 6.189737 -7.148469 4.570630 -11.838743 2.144267 -64.861664 -35.407570 30.339451 -50.381924 7.784525 8.301399 8.524705 12.647240 -40.989632 -5.057420 16.551065 2.193941 56.097176 17.244627 24.496698 51.148041 -7.965905 8.627747 -8.534408 -12.637552 42.230328 9.839662 -6.375488 -13.314871 16.503990 -5.878572 -3.057364 -23.550116 3.990185 -0.798875 -31.955212 -9.198511 9.326185 40.397205 4.609167 6.117749 -13.105605 -5.959153 1.768509 
0.049676 52.838379 -82.893898 1.441134 5.460800 -1.952928 34.536949 -7.123496 -6.057141 -37.752464 7.742002 -1.316198 -13.349401 -3.613579 -3.675872 23.995972 6.173694 -7.243202 4.570630 -11.838743 2.144267 -64.714104 -35.600292 31.062277 -50.841290 7.882203 8.482854 8.524705 12.647240 -40.403702 -5.057420 16.551065 2.193941 56.441380 17.012554 23.493979 50.729343 -7.875021 8.456436 -8.534408 -12.637552 41.683449 10.583909 -6.171273 -13.395078 15.325363 -5.918212 -2.877427 -23.377632 4.108699 -0.763867 -32.125839 -9.003755 10.576211 38.092590 4.775183 5.856021 -13.146470 -6.631580 1.636685 
